<svg preserveAspectRatio="none" width="100%" height="100%" overflow="visible" style="display: block;" viewBox="0 0 41.25 41.25" fill="none" xmlns="http://www.w3.org/2000/svg">
<path id="Vector" d="M13.125 1.875H9.375V3.75H7.5V5.625H5.625V7.5H3.75V9.375H1.875V13.125H0V28.125H1.875V31.875H3.75V33.75H5.625V35.625H7.5V37.5H9.375V39.375H13.125V41.25H28.125V39.375H31.875V37.5H33.75V35.625H35.625V33.75H37.5V31.875H39.375V28.125H41.25V13.125H39.375V9.375H37.5V7.5H35.625V5.625H33.75V3.75H31.875V1.875H28.125V0H13.125V1.875ZM15 18.75H33.75V22.5H15V24.375H16.875V26.25H18.75V28.125H20.625V30H22.5V31.875H20.625V33.75H18.75V31.875H16.875V30H15V28.125H13.125V26.25H11.25V24.375H9.375V22.5H7.5V18.75H9.375V16.875H11.25V15H13.125V13.125H15V11.25H16.875V9.375H18.75V7.5H20.625V9.375H22.5V11.25H20.625V13.125H18.75V15H16.875V16.875H15V18.75Z" fill="var(--fill-0, #62422E)"/>
</svg>
