<svg preserveAspectRatio="none" width="100%" height="100%" overflow="visible" style="display: block;" viewBox="0 0 41.25 41.25" fill="none" xmlns="http://www.w3.org/2000/svg">
<path id="Vector" d="M39.375 35.625V33.75H37.5V31.875H35.625V30H33.75V28.125H30V26.25H31.875V22.5H33.75V11.25H31.875V7.5H30V5.625H28.125V3.75H26.25V1.875H22.5V0H11.25V1.875H7.5V3.75H5.625V5.625H3.75V7.5H1.875V11.25H0V22.5H1.875V26.25H3.75V28.125H5.625V30H7.5V31.875H11.25V33.75H22.5V31.875H26.25V30H28.125V33.75H30V35.625H31.875V37.5H33.75V39.375H35.625V41.25H39.375V39.375H41.25V35.625H39.375ZM20.625 26.25V28.125H13.125V26.25H9.375V24.375H7.5V20.625H5.625V13.125H7.5V9.375H9.375V7.5H13.125V5.625H20.625V7.5H24.375V9.375H26.25V13.125H28.125V20.625H26.25V24.375H24.375V26.25H20.625Z" fill="var(--fill-0, #62422E)"/>
</svg>
