<svg preserveAspectRatio="none" width="100%" height="100%" overflow="visible" style="display: block;" viewBox="0 0 28 28" fill="none" xmlns="http://www.w3.org/2000/svg">
<g id="Group">
<path id="Vector" d="M25.34 5.3375V0H12.005V1.33H6.6675V2.66875H2.66875V12.005H1.33875V14.665H0V28H28V5.3375H25.34ZM6.6675 26.67H1.33875V18.6637H6.6675V26.67ZM6.6675 17.3337H4.0075V3.99875H6.6675V17.3337ZM8.00625 2.66875H12.005V3.99875H9.33625V17.3337H8.00625V2.66875ZM12.005 5.3375V17.3337H10.675V5.3375H12.005ZM13.335 26.67H8.00625V18.6637H13.335V26.67ZM26.67 26.67H14.6738V17.3337H13.335V1.33H24.0013V5.3375H20.0025V6.6675H26.67V26.67Z" fill="var(--fill-0, #62422E)"/>
<path id="Vector_2" d="M24.0012 18.6637H22.6712V20.0025H24.0012V18.6637Z" fill="var(--fill-0, #62422E)"/>
<path id="Vector_3" d="M24.0012 16.0037H22.6712V17.3337H24.0012V16.0037Z" fill="var(--fill-0, #62422E)"/>
<path id="Vector_4" d="M22.6712 20.0025H20.0025V21.3325H22.6712V20.0025Z" fill="var(--fill-0, #62422E)"/>
<path id="Vector_5" d="M20.0025 18.6637H18.6725V20.0025H20.0025V18.6637Z" fill="var(--fill-0, #62422E)"/>
<path id="Vector_6" d="M20.0025 16.0037H18.6725V17.3337H20.0025V16.0037Z" fill="var(--fill-0, #62422E)"/>
<path id="Vector_7" d="M20.0025 6.6675H18.6725V9.33625H20.0025V6.6675Z" fill="var(--fill-0, #62422E)"/>
<path id="Vector_8" d="M18.6725 9.33625H17.3337V12.005H18.6725V9.33625Z" fill="var(--fill-0, #62422E)"/>
<path id="Vector_9" d="M17.3337 12.005H16.0037V14.665H17.3337V12.005Z" fill="var(--fill-0, #62422E)"/>
<path id="Vector_10" d="M17.3337 2.66875H16.0037V3.99875H17.3337V2.66875Z" fill="var(--fill-0, #62422E)"/>
<path id="Vector_11" d="M16.0038 14.665H14.6737V17.3337H16.0038V14.665Z" fill="var(--fill-0, #62422E)"/>
<path id="Vector_12" d="M12.005 21.3325H9.33625V24.0012H12.005V21.3325Z" fill="var(--fill-0, #62422E)"/>
<path id="Vector_13" d="M5.3375 21.3325H2.66875V24.0012H5.3375V21.3325Z" fill="var(--fill-0, #62422E)"/>
</g>
</svg>
