<svg preserveAspectRatio="none" width="100%" height="100%" overflow="visible" style="display: block;" viewBox="0 0 25.8616 27.0404" fill="none" xmlns="http://www.w3.org/2000/svg">
<g id="Group">
<path id="Vector" d="M25.8616 6.81708C25.7862 6.82894 25.4224 6.80013 25.4067 6.81708C25.3677 6.85775 25.4804 7.31362 25.3387 7.36107C25.0968 7.44241 24.4919 7.31277 24.2069 7.367V6.33071C24.2069 6.32647 24.1489 6.26716 24.1448 6.26716H23.1314C23.0511 6.14345 23.1579 5.81807 23.114 5.75706C23.0436 5.65792 22.5523 5.78248 22.5523 5.65369V4.57503C21.8248 4.45725 22.2324 4.88346 22.0601 5.108C21.9996 5.18596 21.5837 5.19697 21.5157 5.14868C21.4146 5.07665 21.5389 4.66569 21.4378 4.59367C21.3367 4.52165 20.9838 4.63604 20.9158 4.53521C20.8355 4.41658 20.9332 3.15574 20.9059 2.91256C20.9465 2.70835 21.3956 2.83969 21.4353 2.79817C21.4569 2.77614 21.3782 2.24825 21.5389 2.24825H22.6351V2.79817C22.7519 2.82105 23.1248 2.73631 23.1671 2.86765C23.2483 3.12185 23.0776 3.6794 23.2764 3.94038H24.2898C24.2533 4.51487 24.2649 4.52843 24.8275 4.4903L24.8681 5.59099C25.038 5.61217 25.3628 5.50371 25.405 5.74012C25.4763 6.13667 25.2418 6.22649 25.8607 6.18327V6.81793L25.8616 6.81708ZM23.0859 4.02935L22.6351 4.02511V4.49114H23.09C23.0801 4.331 23.1439 4.18526 23.0859 4.03019V4.02935ZM24.7446 5.71724H24.2889C24.3171 5.91212 24.1895 6.15361 24.4323 6.18497C24.8424 6.23835 24.738 6.04516 24.7446 5.71724Z" fill="var(--fill-0, #62422E)"/>
<path id="Vector_2" d="M9.44012 11.2164V11.8087C10.0002 11.6596 10.069 11.807 10.0193 12.3587H10.5579V12.9086H11.0956V15.7853H10.5579V16.8639C10.5579 16.9699 10.0756 16.9148 9.97869 16.9275V17.4783H9.44095V18.5569C9.44095 18.6603 8.99601 18.6094 8.90321 18.6205C8.95707 18.9255 8.82616 20.599 8.92144 20.7388C8.97861 20.8227 9.32661 20.76 9.44095 20.7786V21.9208H9.97869C9.99941 22.0386 9.94058 22.3487 9.99692 22.4309C10.0674 22.5343 10.4692 22.4072 10.5396 22.5106C10.596 22.5928 10.5363 22.9029 10.5579 23.0215C10.6507 23.0317 11.0956 22.9808 11.0956 23.0851V25.8982L10.5579 25.9406C10.6092 26.56 10.5429 26.5151 9.97869 26.4905V27.0404H6.69011C6.58902 27.0404 6.63874 26.5854 6.62797 26.4905H6.0894V25.9406C5.97174 25.9203 5.58646 25.9863 5.52846 25.9016L5.51023 24.7992C5.41743 24.7891 4.97249 24.8399 4.97249 24.7357V22.5572C4.84323 22.5284 4.39332 22.6419 4.39332 22.4513V20.865C3.83072 20.9032 3.81829 20.8896 3.85558 20.3151C3.74289 20.2965 3.39241 20.3592 3.33607 20.2762C3.25155 20.1524 3.38413 19.3373 3.29961 19.2136C3.22587 19.1043 2.83478 19.2577 2.7859 19.1043L2.7743 17.5511C2.7221 17.3876 2.25893 17.5765 2.20673 17.4122L2.20093 13.611C2.19927 13.4314 2.75359 13.4898 2.7801 13.4636C2.73453 12.9306 2.79584 12.8671 3.31784 12.9137V12.3629H3.85558C3.88375 12.3341 3.82078 11.8858 3.86138 11.8189C3.92352 11.7155 5.29977 11.7977 5.51023 11.7706C5.52017 11.6757 5.47046 11.2207 5.57237 11.2207H9.44012V11.2164Z" fill="var(--fill-0, #62422E)"/>
<path id="Vector_3" d="M15.9751 10.8148C15.9403 10.6996 15.5442 10.7691 15.4373 10.7513V9.65057C15.265 9.6243 14.9046 9.74547 14.8598 9.50144V6.83742C14.8673 6.63236 15.3503 6.7798 15.3967 6.73235L15.4373 5.63166L16.5136 5.59014C16.5592 5.54523 16.4167 5.04785 16.6164 5.04022H20.3391C20.557 5.0775 20.3599 5.5232 20.4825 5.61387L21.9847 5.59862C22.1719 5.65539 22.0742 6.02906 22.0965 6.18243C22.1893 6.1926 22.6343 6.14176 22.6343 6.24598V7.28227C22.7329 7.28735 23.1223 7.25939 23.1662 7.33057C23.2068 7.39751 23.1488 7.76271 23.172 7.87456C23.2209 7.92455 23.7396 7.77118 23.7512 7.97963L23.7454 11.2309C23.7031 11.3639 23.2938 11.2758 23.172 11.3003V12.4425H22.6343V13.5424C22.5216 13.561 22.1719 13.4983 22.1148 13.5822C22.0302 13.7059 22.1628 14.5211 22.0783 14.6448C22.0211 14.7286 21.6715 14.6651 21.5588 14.6837C21.5008 14.7431 21.64 16.1827 21.5223 16.3513C21.4784 16.4148 21.1188 16.3564 21.021 16.3759V17.9621C21.021 18.1104 20.5396 18.0638 20.4419 18.068C20.4029 18.1078 20.4957 19.0238 20.4237 19.1289C20.3516 19.2339 19.9911 19.1068 19.9224 19.2085C19.8586 19.3026 19.9447 19.6373 19.8983 19.7127C19.8312 19.822 19.4501 19.7 19.3846 19.7559C19.2496 19.872 19.3896 20.2194 19.286 20.2922C19.2048 20.3499 18.9024 20.2889 18.7872 20.3109V20.8608H16.0364C15.9353 20.8608 15.985 20.4058 15.9742 20.3109C15.4116 20.349 15.3992 20.3363 15.4365 19.761C15.2865 19.7381 14.9211 19.8389 14.8656 19.6466L14.8573 16.9478C14.8656 16.7428 15.3487 16.8902 15.3951 16.8428C15.4083 16.7114 15.3503 16.3657 15.4647 16.2894C15.5931 16.203 15.8732 16.3742 15.956 16.253C16.1192 16.0149 15.6528 15.5751 16.512 15.7005V14.6643C16.512 14.4931 17.0497 14.588 17.0497 14.5583V12.4434C16.4871 12.4815 16.4747 12.468 16.512 11.8935C16.3305 11.8935 16.1482 11.9121 15.9742 11.8511C15.9254 11.591 16.0405 11.0334 15.9742 10.8148H15.9751Z" fill="var(--fill-0, #62422E)"/>
<path id="Vector_4" d="M10.5562 6.73235C11.1188 6.69422 11.1312 6.70693 11.0939 7.28227C11.2439 7.30514 11.6093 7.20431 11.6648 7.39666V9.53702C11.6093 9.72852 11.2439 9.62854 11.0939 9.65141C11.1312 10.2268 11.1188 10.2395 10.5562 10.2013C10.5379 10.3166 10.6001 10.675 10.5181 10.7326C10.4733 10.7648 9.50058 10.7707 9.42518 10.7453C9.29675 10.7021 9.37961 10.3208 9.35724 10.2013C8.75155 10.2539 8.79547 10.1861 8.8195 9.60905C8.70267 9.58617 8.32898 9.6709 8.28756 9.53957V7.35175C8.32981 7.22041 8.70267 7.30514 8.8195 7.28227C8.78221 6.70693 8.79464 6.69422 9.35724 6.73235C9.37961 6.61287 9.29675 6.23072 9.42518 6.18836C9.50058 6.16294 10.4733 6.16887 10.5181 6.20107C10.6001 6.25953 10.5379 6.61711 10.5562 6.73235Z" fill="var(--fill-0, #62422E)"/>
<path id="Vector_5" d="M14.3203 1.21196C14.3551 1.09673 14.7512 1.16621 14.8581 1.14841C14.7321 0.262948 15.1762 0.695936 15.3983 0.537484C15.4969 0.467155 15.3767 0.0951752 15.4762 0.0248464C15.5217 -0.00735233 16.5094 -0.009047 16.5566 0.0248464C16.6577 0.0968699 16.5334 0.50698 16.6337 0.580698C16.724 0.64679 16.9096 0.534942 17.0281 0.554431C17.2402 0.590019 17.1615 0.992503 17.1739 1.14841C17.2559 1.16366 17.6437 1.12638 17.6686 1.15011C17.7663 1.24755 17.6876 3.08203 17.7058 3.3625C17.6702 3.47265 17.2982 3.42774 17.1756 3.47604L17.1316 4.02342H16.6353C16.6353 4.11832 16.671 4.57334 16.5318 4.57334H15.4356V4.02342C14.8241 4.0624 14.8191 4.05647 14.8564 3.43113C14.8224 3.39724 14.3187 3.55823 14.3187 3.40995V1.21196H14.3203Z" fill="var(--fill-0, #62422E)"/>
<path id="Vector_6" d="M4.47611 8.42448C4.41811 9.09811 4.5134 8.93119 5.05528 9.01677V10.6877C5.05528 10.7919 4.61117 10.7394 4.51754 10.7513L4.47611 11.3012H3.44206C3.59451 12.1994 3.0286 11.7748 2.90266 11.8689C2.81152 11.9375 2.92752 12.4434 2.75932 12.4434H1.78741C1.79901 12.5663 1.75178 12.6806 1.74432 12.801C1.72941 13.0391 1.76752 13.3051 1.74847 13.5229L0.730986 13.5771L0.593443 13.5365L0.587644 12.9925C0.466673 12.9696 0.130274 13.034 0.0474175 12.9738C-0.00643942 12.9348 -0.00975369 12.5027 0.0142748 12.4273C0.0565317 12.296 0.429387 12.3807 0.546215 12.3578C0.538758 12.2561 0.558644 11.8333 0.625758 11.7833C0.702814 11.7265 1.01187 11.7859 1.12456 11.7647V10.6648C1.2157 10.6674 1.61424 10.6699 1.65815 10.6182C1.71035 10.5555 1.58441 10.1276 1.73024 10.0785C1.95727 10.0022 2.51241 10.1225 2.7792 10.0725V9.03626C2.7792 8.93288 3.22415 8.98372 3.31694 8.97271C3.32689 8.8778 3.27717 8.42279 3.37909 8.42279H4.47528L4.47611 8.42448ZM3.3186 10.7513C2.85378 10.7157 2.82809 10.7419 2.86289 11.2173H3.3186V10.7513ZM1.66395 11.8511C1.1577 11.8028 1.18587 11.8808 1.20824 12.3595H1.66395V11.8511Z" fill="var(--fill-0, #62422E)"/>
<path id="Vector_7" d="M7.18557 7.28227C7.29992 7.3187 7.22866 7.76016 7.24772 7.87455C7.36952 7.89913 7.77883 7.81015 7.82108 7.94403C7.78877 8.18976 7.89068 9.4489 7.80866 9.56922C7.74071 9.66921 7.38526 9.55651 7.28666 9.62769C7.1516 9.72428 7.38526 10.1446 7.13503 10.1903C6.9718 10.22 5.68669 10.2242 5.5939 10.1802C5.57401 10.1708 5.51021 10.1039 5.51021 10.0963V7.8754H6.08938V7.28311C6.36281 7.33734 6.95606 7.21024 7.18557 7.28311V7.28227Z" fill="var(--fill-0, #62422E)"/>
<path id="Vector_8" d="M18.1674 1.76188C18.2022 1.64665 18.5983 1.71613 18.7052 1.69833C18.7234 1.5814 18.6621 1.22552 18.7433 1.16705C18.788 1.13486 19.7591 1.12892 19.8362 1.15434C19.9646 1.19756 19.8818 1.57886 19.9041 1.69833C20.0168 1.71697 20.3665 1.65342 20.4236 1.73731C20.5065 1.85933 20.4029 3.1549 20.4361 3.40487C20.3938 3.5362 20.0209 3.45147 19.9041 3.47435C19.8942 3.56925 19.9439 4.02427 19.842 4.02427H18.2288C18.2246 4.02427 18.1666 3.96495 18.1666 3.96072V1.76104L18.1674 1.76188Z" fill="var(--fill-0, #62422E)"/>
</g>
</svg>
