<svg preserveAspectRatio="none" width="100%" height="100%" overflow="visible" style="display: block;" viewBox="0 0 14.6667 15.5833" fill="none" xmlns="http://www.w3.org/2000/svg">
<path id="Vector" d="M7.5 0.5V1.20801H8.16699V2.625H8.83301V4.04199H9.5V5.45801H14.167V5.875H13.5V6.58301H12.833V7.29199H12.167V8H11.5V8.70801H10.833V13.25H11.5V15.083H11.167V14.375H9.83301V13.667H8.5V12.958H6.16699V13.667H4.83301V14.375H3.5V15.083H3.16699V13.25H3.83301V8.70801H3.16699V8H2.5V7.29199H1.83301V6.58301H1.16699V5.875H0.5V5.45801H5.16699V4.04199H5.83301V2.625H6.5V1.20801H7.16699V0.5H7.5Z" fill="url(#paint0_linear_1960_10391)" stroke="var(--stroke-0, #62422E)"/>
<defs>
<linearGradient id="paint0_linear_1960_10391" x1="7.33333" y1="0" x2="7.33333" y2="15.5833" gradientUnits="userSpaceOnUse">
<stop stop-color="#FEC409"/>
<stop offset="1" stop-color="#FEEC6E"/>
</linearGradient>
</defs>
</svg>
