<svg preserveAspectRatio="none" width="100%" height="100%" overflow="visible" style="display: block;" viewBox="0 0 24 25" fill="none" xmlns="http://www.w3.org/2000/svg">
<g id="Group">
<path id="Vector" d="M24 9.52344H22.8525V15.4766H24V9.52344Z" fill="var(--fill-0, #B47C57)"/>
<path id="Vector_2" d="M22.8525 15.4766H21.7125V17.8594H22.8525V15.4766Z" fill="var(--fill-0, #B47C57)"/>
<path id="Vector_3" d="M22.8525 7.14063H21.7125V9.52344H22.8525V7.14063Z" fill="var(--fill-0, #B47C57)"/>
<path id="Vector_4" d="M21.7125 17.8594H20.5725V20.2344H21.7125V17.8594Z" fill="var(--fill-0, #B47C57)"/>
<path id="Vector_5" d="M21.7125 4.75781H20.5725V7.14063H21.7125V4.75781Z" fill="var(--fill-0, #B47C57)"/>
<path id="Vector_6" d="M20.5725 20.2344H19.425V21.4297H20.5725V20.2344Z" fill="var(--fill-0, #B47C57)"/>
<path id="Vector_7" d="M20.5725 3.57031H19.425V4.75781H20.5725V3.57031Z" fill="var(--fill-0, #B47C57)"/>
<path id="Vector_8" d="M18.285 10.7109H14.8575V9.52344H13.71V11.9062H18.285V13.0937H13.71V14.2891H18.285V15.4766H19.425V9.52344H18.285V10.7109Z" fill="var(--fill-0, #B47C57)"/>
<path id="Vector_9" d="M19.425 21.4297H17.1375V22.6172H19.425V21.4297Z" fill="var(--fill-0, #B47C57)"/>
<path id="Vector_10" d="M19.425 2.38281H17.1375V3.57031H19.425V2.38281Z" fill="var(--fill-0, #B47C57)"/>
<path id="Vector_11" d="M13.71 15.4766V17.8594H9.1425V19.0469H17.1375V17.8594H14.8575V16.6641H17.1375V17.8594H18.285V15.4766H13.71Z" fill="var(--fill-0, #B47C57)"/>
<path id="Vector_12" d="M17.1375 22.6172H14.8575V23.8125H17.1375V22.6172Z" fill="var(--fill-0, #B47C57)"/>
<path id="Vector_13" d="M18.285 8.33594H14.8575V9.52344H18.285V8.33594Z" fill="var(--fill-0, #B47C57)"/>
<path id="Vector_14" d="M15.9975 4.75781H14.8575V7.14063H15.9975V4.75781Z" fill="var(--fill-0, #B47C57)"/>
<path id="Vector_15" d="M17.1375 1.1875H14.8575V2.38281H17.1375V1.1875Z" fill="var(--fill-0, #B47C57)"/>
<path id="Vector_16" d="M14.8575 7.14063H13.71V8.33594H14.8575V7.14063Z" fill="var(--fill-0, #B47C57)"/>
<path id="Vector_17" d="M14.8575 3.57031H12.57V4.75781H14.8575V3.57031Z" fill="var(--fill-0, #B47C57)"/>
<path id="Vector_18" d="M14.8575 23.8125H9.1425V25H14.8575V23.8125Z" fill="var(--fill-0, #B47C57)"/>
<path id="Vector_19" d="M13.71 14.2891H12.57V15.4766H13.71V14.2891Z" fill="var(--fill-0, #B47C57)"/>
<path id="Vector_20" d="M13.71 11.9062H12.57V13.0937H13.71V11.9062Z" fill="var(--fill-0, #B47C57)"/>
<path id="Vector_21" d="M13.71 8.33594H12.57V9.52344H13.71V8.33594Z" fill="var(--fill-0, #B47C57)"/>
<path id="Vector_22" d="M12.57 4.75781H11.4225V5.95312H12.57V4.75781Z" fill="var(--fill-0, #B47C57)"/>
<path id="Vector_23" d="M11.4225 5.95312H10.2825V7.14062H11.4225V5.95312Z" fill="var(--fill-0, #B47C57)"/>
<path id="Vector_24" d="M14.8575 0H9.1425V1.1875H14.8575V0Z" fill="var(--fill-0, #B47C57)"/>
<path id="Vector_25" d="M10.2825 7.14063H9.1425V8.33594H10.2825V7.14063Z" fill="var(--fill-0, #B47C57)"/>
<path id="Vector_26" d="M9.1425 22.6172H6.855V23.8125H9.1425V22.6172Z" fill="var(--fill-0, #B47C57)"/>
<path id="Vector_27" d="M7.995 16.6641V9.52344H9.1425V8.33594H7.995V7.14063H4.5675V19.0469H7.995V17.8594H9.1425V16.6641H7.995ZM6.855 16.6641H5.715V14.2891H6.855V16.6641Z" fill="var(--fill-0, #B47C57)"/>
<path id="Vector_28" d="M9.1425 1.1875H6.855V2.38281H9.1425V1.1875Z" fill="var(--fill-0, #B47C57)"/>
<path id="Vector_29" d="M6.855 21.4297H4.5675V22.6172H6.855V21.4297Z" fill="var(--fill-0, #B47C57)"/>
<path id="Vector_30" d="M6.855 2.38281H4.5675V3.57031H6.855V2.38281Z" fill="var(--fill-0, #B47C57)"/>
<path id="Vector_31" d="M4.5675 20.2344H3.4275V21.4297H4.5675V20.2344Z" fill="var(--fill-0, #B47C57)"/>
<path id="Vector_32" d="M4.5675 3.57031H3.4275V4.75781H4.5675V3.57031Z" fill="var(--fill-0, #B47C57)"/>
<path id="Vector_33" d="M3.4275 17.8594H2.28V20.2344H3.4275V17.8594Z" fill="var(--fill-0, #B47C57)"/>
<path id="Vector_34" d="M3.4275 4.75781H2.28V7.14063H3.4275V4.75781Z" fill="var(--fill-0, #B47C57)"/>
<path id="Vector_35" d="M2.28 15.4766H1.14V17.8594H2.28V15.4766Z" fill="var(--fill-0, #B47C57)"/>
<path id="Vector_36" d="M2.28 7.14063H1.14V9.52344H2.28V7.14063Z" fill="var(--fill-0, #B47C57)"/>
<path id="Vector_37" d="M1.14 9.52344H0V15.4766H1.14V9.52344Z" fill="var(--fill-0, #B47C57)"/>
</g>
</svg>
