<svg preserveAspectRatio="none" width="100%" height="100%" overflow="visible" style="display: block;" viewBox="0 0 11.9953 11.9953" fill="none" xmlns="http://www.w3.org/2000/svg">
<g id="PixelPin" clip-path="url(#clip0_0_18)">
<path id="Vector" d="M7.99687 -2.72751e-08H3.99843V1.33281H7.99687V-2.72751e-08Z" fill="var(--fill-0, #62422E)"/>
<path id="Vector_2" d="M9.32968 1.33281H2.66562V2.66562H9.32968V1.33281Z" fill="var(--fill-0, #62422E)"/>
<path id="Vector_3" d="M10.6625 2.66562H1.33281V5.33124H10.6625V2.66562Z" fill="var(--fill-0, #62422E)"/>
<path id="Vector_4" d="M9.32968 2.66562H2.66562V5.33124H9.32968V2.66562Z" fill="var(--fill-0, #F18940)"/>
<path id="Vector_5" d="M7.99687 2.66562H3.99843V3.99843H7.99687V2.66562Z" fill="var(--fill-0, #FFD54F)"/>
<path id="Vector_6" d="M9.32968 5.33124H2.66562V6.66406H9.32968V5.33124Z" fill="var(--fill-0, #62422E)"/>
<path id="Vector_7" d="M7.99687 6.66406H3.99843V7.99687H7.99687V6.66406Z" fill="var(--fill-0, #62422E)"/>
<path id="Vector_8" d="M6.66406 7.99687H5.33124V9.32968H6.66406V7.99687Z" fill="var(--fill-0, #62422E)"/>
<path id="Vector_9" d="M6.66406 9.32968H5.33124V10.6625H6.66406V9.32968Z" fill="var(--fill-0, #62422E)"/>
<path id="Vector_10" d="M6.66406 10.6625H5.33124V11.9953H6.66406V10.6625Z" fill="var(--fill-0, #62422E)"/>
</g>
<defs>
<clipPath id="clip0_0_18">
<rect width="11.9953" height="11.9953" fill="white"/>
</clipPath>
</defs>
</svg>
