<svg width="165" height="23" viewBox="0 0 165 23" fill="none" xmlns="http://www.w3.org/2000/svg">
  <mask id="path-1-outside-1_3_13" maskUnits="userSpaceOnUse" x="-0.510254" y="-0.707275" width="166" height="23" fill="black">
    <rect fill="white" x="-0.510254" y="-0.707275" width="166" height="23"/>
    <path d="M3.46345 16.6342H2.73174V15.9025H2.00004V2.00004H5.65857V14.4391H6.39028V15.1708H7.12199V15.9025H7.85369V15.1708H8.5854V14.4391H9.31711V2.00004H12.9756V14.4391H13.7074V15.1708H14.4391V15.9025H15.1708V15.1708H15.9025V14.4391H16.6342V2.00004H20.2927V15.9025H19.561V16.6342H18.8293V17.3659H18.0976V18.0976H17.3659V18.8293H16.6342V19.561H15.9025V20.2927H13.7074V19.561H12.9756V18.8293H12.2439V18.0976H11.5122V17.3659H10.7805V18.0976H10.0488V18.8293H9.31711V19.561H8.5854V20.2927H6.39028V19.561H5.65857V18.8293H4.92686V18.0976H4.19516V17.3659H3.46345V16.6342ZM29.4967 9.31712V10.0488H28.765V20.2927H25.1065V2.00004H28.765V7.12199H29.4967V6.39029H33.887V7.12199H35.3504V7.8537H36.0821V9.31712H36.8138V20.2927H33.1553V10.0488H32.4236V9.31712H29.4967ZM48.9668 19.561V20.2927H43.1131V19.561H41.6497V18.8293H40.918V17.3659H40.1863V9.31712H40.918V7.8537H41.6497V7.12199H43.1131V6.39029H48.9668V7.12199H50.4302V7.8537H51.1619V9.31712H51.8936V17.3659H51.1619V18.8293H50.4302V19.561H48.9668ZM44.5765 16.6342V17.3659H47.5034V16.6342H48.2351V10.0488H47.5034V9.31712H44.5765V10.0488H43.8448V16.6342H44.5765ZM73.2656 12.2439V7.8537H72.5339V7.12199H71.8022V6.39029H70.3388V7.12199H69.6071V7.8537H68.8754V12.2439H73.2656ZM65.9485 6.39029V5.65858H66.6802V4.92687H67.412V4.19516H68.1437V3.46346H68.8754V2.73175H69.6071V2.00004H72.5339V2.73175H73.2656V3.46346H73.9973V4.19516H74.729V4.92687H75.4607V5.65858H76.1924V6.39029H76.9241V20.2927H73.2656V15.9025H68.8754V20.2927H65.2168V6.39029H65.9485ZM86.151 9.31712V10.0488H85.4193V20.2927H81.7608V6.39029H85.4193V7.12199H86.151V6.39029H90.5413V7.12199H91.273V7.8537H92.0047V8.58541H91.273V9.31712H90.5413V10.0488H89.8096V10.7805H89.0779V10.0488H88.3461V9.31712H86.151ZM99.0336 16.6342V17.3659H101.96V16.6342H102.692V15.9025H106.351V17.3659H105.619V18.8293H104.887V19.561H103.424V20.2927H97.5702V19.561H96.1067V18.8293H95.375V17.3659H94.6433V9.31712H95.375V7.8537H96.1067V7.12199H97.5702V6.39029H103.424V7.12199H104.887V7.8537H105.619V9.31712H106.351V14.4391H98.3019V16.6342H99.0336ZM98.3019 10.0488V12.2439H102.692V10.0488H101.96V9.31712H99.0336V10.0488H98.3019ZM124.064 14.4391H123.332V13.7074H122.601V12.9757H121.869V12.2439H121.137V11.5122H120.406V10.7805H119.674V2.00004H123.332V9.31712H124.064V10.0488H124.796V10.7805H126.991V10.0488H127.723V9.31712H128.454V2.00004H132.113V10.7805H131.381V11.5122H130.649V12.2439H129.918V12.9757H129.186V13.7074H128.454V14.4391H127.723V20.2927H124.064V14.4391ZM144.97 19.561V20.2927H139.116V19.561H137.653V18.8293H136.921V17.3659H136.189V9.31712H136.921V7.8537H137.653V7.12199H139.116V6.39029H144.97V7.12199H146.433V7.8537H147.165V9.31712H147.897V17.3659H147.165V18.8293H146.433V19.561H144.97ZM140.579 16.6342V17.3659H143.506V16.6342H144.238V10.0488H143.506V9.31712H140.579V10.0488H139.848V16.6342H140.579ZM152 18.8293V17.3659H151.268V6.39029H154.927V16.6342H155.659V17.3659H158.585V16.6342H159.317V6.39029H162.976V20.2927H159.317V19.561H158.585V20.2927H154.195V19.561H152.732V18.8293H152Z"/>
  </mask>
  <path d="M3.46345 16.6342H2.73174V15.9025H2.00004V2.00004H5.65857V14.4391H6.39028V15.1708H7.12199V15.9025H7.85369V15.1708H8.5854V14.4391H9.31711V2.00004H12.9756V14.4391H13.7074V15.1708H14.4391V15.9025H15.1708V15.1708H15.9025V14.4391H16.6342V2.00004H20.2927V15.9025H19.561V16.6342H18.8293V17.3659H18.0976V18.0976H17.3659V18.8293H16.6342V19.561H15.9025V20.2927H13.7074V19.561H12.9756V18.8293H12.2439V18.0976H11.5122V17.3659H10.7805V18.0976H10.0488V18.8293H9.31711V19.561H8.5854V20.2927H6.39028V19.561H5.65857V18.8293H4.92686V18.0976H4.19516V17.3659H3.46345V16.6342ZM29.4967 9.31712V10.0488H28.765V20.2927H25.1065V2.00004H28.765V7.12199H29.4967V6.39029H33.887V7.12199H35.3504V7.8537H36.0821V9.31712H36.8138V20.2927H33.1553V10.0488H32.4236V9.31712H29.4967ZM48.9668 19.561V20.2927H43.1131V19.561H41.6497V18.8293H40.918V17.3659H40.1863V9.31712H40.918V7.8537H41.6497V7.12199H43.1131V6.39029H48.9668V7.12199H50.4302V7.8537H51.1619V9.31712H51.8936V17.3659H51.1619V18.8293H50.4302V19.561H48.9668ZM44.5765 16.6342V17.3659H47.5034V16.6342H48.2351V10.0488H47.5034V9.31712H44.5765V10.0488H43.8448V16.6342H44.5765ZM73.2656 12.2439V7.8537H72.5339V7.12199H71.8022V6.39029H70.3388V7.12199H69.6071V7.8537H68.8754V12.2439H73.2656ZM65.9485 6.39029V5.65858H66.6802V4.92687H67.412V4.19516H68.1437V3.46346H68.8754V2.73175H69.6071V2.00004H72.5339V2.73175H73.2656V3.46346H73.9973V4.19516H74.729V4.92687H75.4607V5.65858H76.1924V6.39029H76.9241V20.2927H73.2656V15.9025H68.8754V20.2927H65.2168V6.39029H65.9485ZM86.151 9.31712V10.0488H85.4193V20.2927H81.7608V6.39029H85.4193V7.12199H86.151V6.39029H90.5413V7.12199H91.273V7.8537H92.0047V8.58541H91.273V9.31712H90.5413V10.0488H89.8096V10.7805H89.0779V10.0488H88.3461V9.31712H86.151ZM99.0336 16.6342V17.3659H101.96V16.6342H102.692V15.9025H106.351V17.3659H105.619V18.8293H104.887V19.561H103.424V20.2927H97.5702V19.561H96.1067V18.8293H95.375V17.3659H94.6433V9.31712H95.375V7.8537H96.1067V7.12199H97.5702V6.39029H103.424V7.12199H104.887V7.8537H105.619V9.31712H106.351V14.4391H98.3019V16.6342H99.0336ZM98.3019 10.0488V12.2439H102.692V10.0488H101.96V9.31712H99.0336V10.0488H98.3019ZM124.064 14.4391H123.332V13.7074H122.601V12.9757H121.869V12.2439H121.137V11.5122H120.406V10.7805H119.674V2.00004H123.332V9.31712H124.064V10.0488H124.796V10.7805H126.991V10.0488H127.723V9.31712H128.454V2.00004H132.113V10.7805H131.381V11.5122H130.649V12.2439H129.918V12.9757H129.186V13.7074H128.454V14.4391H127.723V20.2927H124.064V14.4391ZM144.97 19.561V20.2927H139.116V19.561H137.653V18.8293H136.921V17.3659H136.189V9.31712H136.921V7.8537H137.653V7.12199H139.116V6.39029H144.97V7.12199H146.433V7.8537H147.165V9.31712H147.897V17.3659H147.165V18.8293H146.433V19.561H144.97ZM140.579 16.6342V17.3659H143.506V16.6342H144.238V10.0488H143.506V9.31712H140.579V10.0488H139.848V16.6342H140.579ZM152 18.8293V17.3659H151.268V6.39029H154.927V16.6342H155.659V17.3659H158.585V16.6342H159.317V6.39029H162.976V20.2927H159.317V19.561H158.585V20.2927H154.195V19.561H152.732V18.8293H152Z" fill="url(#paint0_linear_3_13)"/>
  <path d="M3.46345 16.6342H2.73174V15.9025H2.00004V2.00004H5.65857V14.4391H6.39028V15.1708H7.12199V15.9025H7.85369V15.1708H8.5854V14.4391H9.31711V2.00004H12.9756V14.4391H13.7074V15.1708H14.4391V15.9025H15.1708V15.1708H15.9025V14.4391H16.6342V2.00004H20.2927V15.9025H19.561V16.6342H18.8293V17.3659H18.0976V18.0976H17.3659V18.8293H16.6342V19.561H15.9025V20.2927H13.7074V19.561H12.9756V18.8293H12.2439V18.0976H11.5122V17.3659H10.7805V18.0976H10.0488V18.8293H9.31711V19.561H8.5854V20.2927H6.39028V19.561H5.65857V18.8293H4.92686V18.0976H4.19516V17.3659H3.46345V16.6342ZM29.4967 9.31712V10.0488H28.765V20.2927H25.1065V2.00004H28.765V7.12199H29.4967V6.39029H33.887V7.12199H35.3504V7.8537H36.0821V9.31712H36.8138V20.2927H33.1553V10.0488H32.4236V9.31712H29.4967ZM48.9668 19.561V20.2927H43.1131V19.561H41.6497V18.8293H40.918V17.3659H40.1863V9.31712H40.918V7.8537H41.6497V7.12199H43.1131V6.39029H48.9668V7.12199H50.4302V7.8537H51.1619V9.31712H51.8936V17.3659H51.1619V18.8293H50.4302V19.561H48.9668ZM44.5765 16.6342V17.3659H47.5034V16.6342H48.2351V10.0488H47.5034V9.31712H44.5765V10.0488H43.8448V16.6342H44.5765ZM73.2656 12.2439V7.8537H72.5339V7.12199H71.8022V6.39029H70.3388V7.12199H69.6071V7.8537H68.8754V12.2439H73.2656ZM65.9485 6.39029V5.65858H66.6802V4.92687H67.412V4.19516H68.1437V3.46346H68.8754V2.73175H69.6071V2.00004H72.5339V2.73175H73.2656V3.46346H73.9973V4.19516H74.729V4.92687H75.4607V5.65858H76.1924V6.39029H76.9241V20.2927H73.2656V15.9025H68.8754V20.2927H65.2168V6.39029H65.9485ZM86.151 9.31712V10.0488H85.4193V20.2927H81.7608V6.39029H85.4193V7.12199H86.151V6.39029H90.5413V7.12199H91.273V7.8537H92.0047V8.58541H91.273V9.31712H90.5413V10.0488H89.8096V10.7805H89.0779V10.0488H88.3461V9.31712H86.151ZM99.0336 16.6342V17.3659H101.96V16.6342H102.692V15.9025H106.351V17.3659H105.619V18.8293H104.887V19.561H103.424V20.2927H97.5702V19.561H96.1067V18.8293H95.375V17.3659H94.6433V9.31712H95.375V7.8537H96.1067V7.12199H97.5702V6.39029H103.424V7.12199H104.887V7.8537H105.619V9.31712H106.351V14.4391H98.3019V16.6342H99.0336ZM98.3019 10.0488V12.2439H102.692V10.0488H101.96V9.31712H99.0336V10.0488H98.3019ZM124.064 14.4391H123.332V13.7074H122.601V12.9757H121.869V12.2439H121.137V11.5122H120.406V10.7805H119.674V2.00004H123.332V9.31712H124.064V10.0488H124.796V10.7805H126.991V10.0488H127.723V9.31712H128.454V2.00004H132.113V10.7805H131.381V11.5122H130.649V12.2439H129.918V12.9757H129.186V13.7074H128.454V14.4391H127.723V20.2927H124.064V14.4391ZM144.97 19.561V20.2927H139.116V19.561H137.653V18.8293H136.921V17.3659H136.189V9.31712H136.921V7.8537H137.653V7.12199H139.116V6.39029H144.97V7.12199H146.433V7.8537H147.165V9.31712H147.897V17.3659H147.165V18.8293H146.433V19.561H144.97ZM140.579 16.6342V17.3659H143.506V16.6342H144.238V10.0488H143.506V9.31712H140.579V10.0488H139.848V16.6342H140.579ZM152 18.8293V17.3659H151.268V6.39029H154.927V16.6342H155.659V17.3659H158.585V16.6342H159.317V6.39029H162.976V20.2927H159.317V19.561H158.585V20.2927H154.195V19.561H152.732V18.8293H152Z" fill="#B47C57" mask="url(#path-1-outside-1_3_13)"/>
  <defs>
    <linearGradient id="paint0_linear_3_13" x1="82.4946" y1="-6.70728" x2="82.4946" y2="29.2927" gradientUnits="userSpaceOnUse">
      <stop stop-color="#FEC409"/>
      <stop offset="1" stop-color="#FEEC6E"/>
    </linearGradient>
  </defs>
</svg>
