<svg preserveAspectRatio="none" width="100%" height="100%" overflow="visible" style="display: block;" viewBox="0 0 13.4268 9.88622" fill="none" xmlns="http://www.w3.org/2000/svg">
<g id="Group">
<path id="Vector" d="M8.05693 3.95697V4.61432H8.72651V7.25237H9.39609V4.61432H12.7528V8.56707H13.4268V1.31892H12.7528V3.95697H8.05693Z" fill="var(--fill-0, #000001)"/>
<path id="Vector_2" d="M12.7529 8.56719H12.0833V9.22886H12.7529V8.56719Z" fill="var(--fill-0, #000001)"/>
<path id="Vector_3" d="M12.7529 0.661682H12.0833V1.31903H12.7529V0.661682Z" fill="var(--fill-0, #000001)"/>
<path id="Vector_4" d="M12.0834 1.9806H11.4139V2.63795H12.0834V1.9806Z" fill="var(--fill-0, #000001)"/>
<path id="Vector_5" d="M12.0832 9.22887H1.34346V9.88622H12.0832V9.22887Z" fill="var(--fill-0, #000001)"/>
<path id="Vector_6" d="M11.4136 2.63801H9.39604V3.29536H11.4136V2.63801Z" fill="var(--fill-0, #000001)"/>
<path id="Vector_7" d="M11.4136 1.31892H9.39604V1.98059H11.4136V1.31892Z" fill="var(--fill-0, #000001)"/>
<path id="Vector_8" d="M9.39616 1.9806H8.72658V2.63795H9.39616V1.9806Z" fill="var(--fill-0, #000001)"/>
<path id="Vector_9" d="M8.72651 7.25254H8.05693V7.90989H8.72651V7.25254Z" fill="var(--fill-0, #000001)"/>
<path id="Vector_10" d="M12.0832 0H7.38294V0.661675H12.0832V0Z" fill="var(--fill-0, #000001)"/>
<path id="Vector_11" d="M6.04383 7.25257H7.38299V6.5909H8.05697V5.27187H7.38299V5.93355H6.71341V5.27187H7.38299V4.61452H6.04383V5.27187H5.36984V6.5909H6.04383V7.25257Z" fill="var(--fill-0, #000001)"/>
<path id="Vector_12" d="M8.05697 3.29525H5.36984V3.95693H8.05697V3.29525Z" fill="var(--fill-0, #000001)"/>
<path id="Vector_13" d="M8.05697 7.90977H5.36984V8.56712H8.05697V7.90977Z" fill="var(--fill-0, #000001)"/>
<path id="Vector_14" d="M7.38306 0.661682H6.71348V1.31903H7.38306V0.661682Z" fill="var(--fill-0, #000001)"/>
<path id="Vector_15" d="M5.36996 7.25254H4.70038V7.90989H5.36996V7.25254Z" fill="var(--fill-0, #000001)"/>
<path id="Vector_16" d="M5.3697 0H3.35656V0.661675H5.3697V0Z" fill="var(--fill-0, #000001)"/>
<path id="Vector_17" d="M3.35667 2.63801H2.0131V3.29536H3.35667V2.63801Z" fill="var(--fill-0, #000001)"/>
<path id="Vector_18" d="M6.71331 1.98071V1.31903H6.04373V0.661682H5.36975V1.31903H3.3566V0.661682H2.68702V1.31903H1.34346V1.98071H6.71331Z" fill="var(--fill-0, #000001)"/>
<path id="Vector_19" d="M1.34363 8.56719H0.669645V9.22886H1.34363V8.56719Z" fill="var(--fill-0, #000001)"/>
<path id="Vector_20" d="M1.34363 1.9806H0.669645V2.63795H1.34363V1.9806Z" fill="var(--fill-0, #000001)"/>
<path id="Vector_21" d="M0.66958 4.61439H4.02629V7.25244H4.70028V4.61439H5.36985V3.95704H0.66958V2.63801H0V8.56714H0.66958V4.61439Z" fill="var(--fill-0, #000001)"/>
</g>
</svg>
